<svg width="620" height="260" viewBox="0 0 620 260" fill="none" xmlns="http://www.w3.org/2000/svg">
<path d="M20.4088 256.892V6.09547" stroke="#1D1A1E" stroke-width="4.99215" stroke-linecap="round" stroke-linejoin="round"/>
<path d="M40.8221 22.6347L37.1682 26.0376L20.4132 8.01041L3.65387 26.0376L0 22.6347L20.4132 0.680664L40.8221 22.6347Z" fill="#1D1A1E"/>
<path d="M20.4088 257.332C61.2221 227.075 98.1658 212.332 126.063 204.505C161.585 194.538 169.399 199.442 209.265 187.776C239.896 178.813 243.669 173.469 314.039 141.993C363.987 119.652 389.348 108.395 408.247 104.134C458.367 92.8331 472.96 104.429 512.581 95.7694C538.73 90.0464 575.7 75.5454 616.227 34.5032" stroke="#1D1A1E" stroke-width="4.99215" stroke-linecap="round" stroke-linejoin="round"/>
<path d="M618.657 60.5645L613.665 60.3444L614.775 35.7579L590.17 36.449L590.034 31.4569L620 30.6204L618.657 60.5645Z" fill="#1D1A1E"/>
</svg>
