<svg width="170" height="40" viewBox="0 0 170 40" fill="none" xmlns="http://www.w3.org/2000/svg">
<g clip-path="url(#clip0_2_5)">
<path d="M96.987 25.6669H93.0902V18.3063H84.4306V25.6669H80.5338V7.52084L84.4306 7.48187V14.4095H93.0902V7.48187L96.987 7.52084V25.6669Z" fill="#1D1A1E"/>
<path d="M114.306 25.6669H100.451V21.7701H105.647V10.9457H100.451V7.48187H114.306V10.9457H109.11V21.7701H114.306V25.6669Z" fill="#1D1A1E"/>
<path d="M134.223 7.52084L127.036 25.6669H122.766L115.605 7.52084H119.744L124.979 21.4757L130.274 7.52084H134.223Z" fill="#1D1A1E"/>
<path d="M144.853 22.5841C145.773 22.6218 146.689 22.4331 147.519 22.0345C148.349 21.636 149.069 21.0397 149.615 20.298L152.889 22.2161C151.196 24.7187 148.433 26.2255 144.827 26.2255C138.765 26.2255 134.812 22.0645 134.812 16.5441C134.812 11.0929 138.752 6.8627 144.532 6.8627C150.018 6.8627 153.772 11.2791 153.772 16.5787C153.761 17.1342 153.712 17.6883 153.625 18.237H138.96C139.588 21.1077 141.904 22.5841 144.853 22.5841ZM149.741 14.4095C149.187 11.2444 146.875 10.4694 144.485 10.4694C141.501 10.4694 139.471 11.6471 138.921 14.4095H149.741Z" fill="#1D1A1E"/>
<path d="M170 20.5578C170 24.2381 166.796 26.2255 162.817 26.2255C159.137 26.2255 156.487 24.5715 155.309 21.8957L158.734 19.917C159.323 21.5753 160.795 22.5711 162.817 22.5711C164.588 22.5711 165.947 21.9779 165.947 20.5058C165.947 17.2325 156.045 19.0727 156.045 12.4827C156.045 9.01892 159.028 6.85403 162.782 6.85403C165.813 6.85403 168.307 8.25255 169.593 10.6816L166.263 12.5563C165.965 11.8979 165.475 11.345 164.856 10.9703C164.238 10.5955 163.521 10.4164 162.8 10.4564C161.362 10.4564 160.111 11.0799 160.111 12.4091C160.093 15.769 170 13.747 170 20.5578Z" fill="#1D1A1E"/>
<path d="M134.868 37.0802C134.905 36.5429 135.109 36.0308 135.453 35.6164C135.797 35.2021 136.263 34.9067 136.785 34.772C137.306 34.6373 137.857 34.6703 138.358 34.8662C138.86 35.0622 139.287 35.4111 139.579 35.8635L138.678 36.3701C138.554 36.1473 138.37 35.9638 138.146 35.8406C137.923 35.7173 137.669 35.6593 137.414 35.673C137.169 35.6874 136.933 35.7646 136.727 35.8972C136.521 36.0297 136.352 36.2132 136.238 36.4299C136.123 36.6465 136.067 36.889 136.074 37.1339C136.08 37.3788 136.15 37.6179 136.276 37.828C136.402 38.0381 136.58 38.2121 136.793 38.3332C137.006 38.4544 137.247 38.5186 137.492 38.5196C137.737 38.5206 137.978 38.4584 138.192 38.3389C138.406 38.2195 138.585 38.047 138.713 37.8379L139.609 38.3185C139.384 38.6876 139.065 38.9908 138.685 39.1975C138.305 39.4043 137.877 39.5073 137.444 39.4962C137.114 39.5163 136.784 39.4687 136.473 39.3565C136.162 39.2442 135.877 39.0696 135.636 38.8434C135.394 38.6173 135.202 38.3442 135.07 38.041C134.938 37.7378 134.869 37.4109 134.868 37.0802Z" fill="#1D1A1E"/>
<path d="M144.749 36.5607V39.3447H143.705V36.6602C143.717 36.5165 143.697 36.3719 143.646 36.2368C143.595 36.1018 143.515 35.9796 143.412 35.8791C143.309 35.7785 143.184 35.7021 143.048 35.6553C142.911 35.6084 142.766 35.5923 142.623 35.6081C141.934 35.6081 141.393 35.9891 141.393 36.907V39.336H140.35V32.9973H141.393V35.3916C141.562 35.1587 141.787 34.9726 142.048 34.8506C142.308 34.7287 142.596 34.675 142.883 34.6945C143.133 34.6743 143.384 34.7086 143.62 34.7952C143.856 34.8818 144.07 35.0186 144.247 35.1961C144.425 35.3736 144.561 35.5876 144.648 35.8232C144.735 36.0588 144.769 36.3105 144.749 36.5607Z" fill="#1D1A1E"/>
<path d="M150.741 34.8114V39.3447H149.693V38.6909C149.494 38.9449 149.236 39.1474 148.943 39.2815C148.649 39.4156 148.327 39.4773 148.005 39.4616C147.68 39.4812 147.355 39.4341 147.049 39.3233C146.743 39.2125 146.463 39.0403 146.226 38.8172C145.989 38.5942 145.8 38.325 145.671 38.0263C145.542 37.7276 145.475 37.4056 145.475 37.0802C145.475 36.7548 145.542 36.4329 145.671 36.1342C145.8 35.8354 145.989 35.5663 146.226 35.3432C146.463 35.1202 146.743 34.9479 147.049 34.8371C147.355 34.7263 147.68 34.6793 148.005 34.6988C148.326 34.6835 148.647 34.7446 148.941 34.8771C149.234 35.0095 149.492 35.2096 149.693 35.4609V34.8114H150.741ZM149.693 37.0802C149.708 36.775 149.631 36.4725 149.472 36.2115C149.313 35.9506 149.08 35.7433 148.802 35.6163C148.524 35.4894 148.214 35.4487 147.913 35.4994C147.612 35.5502 147.332 35.6901 147.111 35.901C146.89 36.112 146.738 36.3844 146.673 36.683C146.608 36.9816 146.635 37.2927 146.748 37.5763C146.862 37.8598 147.059 38.1027 147.312 38.2736C147.565 38.4445 147.864 38.5355 148.169 38.535C148.366 38.5457 148.564 38.5159 148.749 38.4474C148.934 38.379 149.103 38.2734 149.246 38.1371C149.389 38.0008 149.502 37.8367 149.579 37.6549C149.656 37.4732 149.695 37.2776 149.693 37.0802Z" fill="#1D1A1E"/>
<path d="M156.353 36.5606V39.3447H155.309V36.6602C155.322 36.5162 155.302 36.3713 155.252 36.2359C155.201 36.1005 155.121 35.978 155.018 35.8772C154.914 35.7765 154.789 35.7001 154.652 35.6536C154.516 35.607 154.37 35.5915 154.227 35.6081C153.543 35.6081 153.001 35.9891 153.001 36.907V39.336H151.975V34.8114H153.023V35.3916C153.192 35.1571 153.419 34.9699 153.681 34.8479C153.943 34.7258 154.233 34.673 154.521 34.6945C154.768 34.6795 155.016 34.7177 155.248 34.8067C155.479 34.8956 155.689 35.0332 155.862 35.2101C156.036 35.387 156.169 35.5991 156.254 35.8321C156.339 36.0651 156.372 36.3135 156.353 36.5606Z" fill="#1D1A1E"/>
<path d="M161.873 36.5606V39.3447H160.83V36.6602C160.841 36.516 160.821 36.371 160.77 36.2356C160.719 36.1002 160.639 35.9778 160.535 35.8772C160.431 35.7766 160.306 35.7002 160.169 35.6537C160.032 35.6072 159.886 35.5916 159.743 35.6081C159.059 35.6081 158.517 35.9891 158.517 36.907V39.336H157.474V34.8114H158.517V35.3916C158.687 35.1574 158.914 34.9704 159.176 34.8484C159.438 34.7264 159.727 34.6734 160.016 34.6945C160.265 34.6755 160.516 34.7109 160.75 34.7981C160.985 34.8853 161.198 35.0223 161.374 35.1996C161.551 35.377 161.687 35.5905 161.773 35.8254C161.859 36.0604 161.893 36.3112 161.873 36.5606Z" fill="#1D1A1E"/>
<path d="M165.358 38.5653C165.596 38.5762 165.833 38.5309 166.049 38.4331C166.266 38.3353 166.457 38.1878 166.605 38.0025L167.471 38.4744C167.226 38.799 166.904 39.0587 166.535 39.2307C166.166 39.4028 165.761 39.482 165.354 39.4616C163.761 39.4616 162.726 38.4398 162.726 37.0802C162.726 35.7207 163.761 34.6945 165.276 34.6945C165.595 34.6851 165.912 34.7404 166.208 34.857C166.504 34.9736 166.774 35.1491 167.001 35.3729C167.228 35.5967 167.406 35.8642 167.527 36.1592C167.647 36.4541 167.706 36.7704 167.701 37.0889C167.698 37.2252 167.687 37.3611 167.666 37.4959H163.817C163.905 37.8283 164.108 38.1185 164.391 38.3145C164.673 38.5105 165.016 38.5994 165.358 38.5653ZM166.657 36.6992C166.606 36.375 166.437 36.0813 166.182 35.8749C165.927 35.6685 165.604 35.5642 165.276 35.5821C164.939 35.5579 164.604 35.6581 164.335 35.8639C164.066 36.0698 163.882 36.3669 163.817 36.6992H166.657Z" fill="#1D1A1E"/>
<path d="M168.615 32.7288H169.658V39.3447H168.615V32.7288Z" fill="#1D1A1E"/>
<path d="M37.1884 16.5614C37.1884 11.2748 33.4995 6.87137 28.0959 6.87137C23.1859 6.87137 19.6269 10.0451 18.7566 14.4138H22.6274V18.3106H18.7133C19.4537 22.9045 23.1037 26.1778 28.4033 26.1778C31.9451 26.1778 34.6599 24.6711 36.3225 22.1771L33.1055 20.2677C32.5763 21.0024 31.8736 21.5948 31.06 21.9922C30.2464 22.3896 29.3471 22.5795 28.4423 22.5452C25.55 22.5452 23.2466 21.164 22.6491 18.302H37.0239C37.1166 17.726 37.1716 17.1446 37.1884 16.5614ZM22.6491 14.3965C23.1946 11.6428 25.1517 10.4478 28.0786 10.4478C30.4297 10.4478 32.6768 11.2358 33.218 14.3922L22.6491 14.3965Z" fill="#FCEA10"/>
<path d="M39.5005 16.5181C39.5005 11.0496 43.5879 6.86271 49.0261 6.86271C50.6767 6.82831 52.3045 7.25295 53.7279 8.0893C55.1514 8.92565 56.3147 10.1409 57.0881 11.5995L53.7239 13.5825C52.9315 11.8506 51.1606 10.7552 48.9914 10.7552C45.809 10.7552 43.3887 13.2145 43.3887 16.5181C43.3887 19.8217 45.809 22.281 48.9914 22.281C49.9764 22.3044 50.9483 22.0521 51.7975 21.5525C52.6467 21.0529 53.3394 20.326 53.7975 19.4537L57.1574 21.4021C56.3687 22.865 55.1931 24.0829 53.7591 24.9229C52.3251 25.7628 50.6877 26.1925 49.0261 26.1649C43.5879 26.1735 39.5005 21.952 39.5005 16.5181Z" fill="#FCEA10"/>
<path d="M76.4422 14.4268V25.6842H72.5454V14.8295C72.5454 12.0411 70.9564 10.5733 68.497 10.5733C65.9338 10.5733 63.9075 12.1147 63.9075 15.8556V25.6929H60.0107V0H63.9075V9.69004C65.1025 7.78061 67.0552 6.8627 69.5102 6.8627C73.5499 6.8627 76.4422 9.6554 76.4422 14.4268Z" fill="#FCEA10"/>
<path d="M9.95847 14.4095V7.48187H6.06168V14.4095" fill="#FCEA10"/>
<path d="M9.95847 18.3063H18.618V14.4095H9.95847" fill="#FCEA10"/>
<path d="M6.06168 18.3063V25.6669H9.95847V18.3063" fill="#FCEA10"/>
<path d="M6.06169 14.4095H0V18.3063H6.06169" fill="#FCEA10"/>
</g>
<defs>
<clipPath id="clip0_2_5">
<rect width="170" height="39.4616" fill="white"/>
</clipPath>
</defs>
</svg>
