<svg width="285" height="62" viewBox="0 0 285 62" fill="none" xmlns="http://www.w3.org/2000/svg">
<rect width="285" height="62" rx="4" fill="#FCEA10"/>
<path d="M28.2 39H24.65V22.325H28.2V39ZM51.8068 39H48.4318L45.8818 30.775L43.3318 39H39.9318L36.2568 26.925H39.5568L41.8068 35.05L44.4568 26.925H47.2818L49.9318 35.05L52.1818 26.925H55.4818L51.8068 39ZM67.4707 39H64.2957V37.75C63.429 38.7833 62.154 39.3 60.4707 39.3C59.3874 39.3 58.4124 38.95 57.5457 38.25C56.6957 37.5333 56.2707 36.55 56.2707 35.3C56.2707 34 56.6874 33.025 57.5207 32.375C58.3707 31.725 59.354 31.4 60.4707 31.4C62.1874 31.4 63.4624 31.8917 64.2957 32.875V31.25C64.2957 30.6333 64.054 30.1417 63.5707 29.775C63.0874 29.4083 62.4457 29.225 61.6457 29.225C60.329 29.225 59.154 29.7 58.1207 30.65L56.9207 28.525C58.354 27.2583 60.1124 26.625 62.1957 26.625C63.7457 26.625 65.0124 26.9833 65.9957 27.7C66.979 28.4167 67.4707 29.5833 67.4707 31.2V39ZM61.7457 37.15C62.929 37.15 63.779 36.8 64.2957 36.1V34.6C63.779 33.9 62.929 33.55 61.7457 33.55C61.0957 33.55 60.554 33.7167 60.1207 34.05C59.6874 34.3667 59.4707 34.8083 59.4707 35.375C59.4707 35.925 59.6874 36.3583 60.1207 36.675C60.554 36.9917 61.0957 37.15 61.7457 37.15ZM81.9449 39H78.7699V31.7C78.7699 30.2 78.0283 29.45 76.5449 29.45C75.3949 29.45 74.4783 29.925 73.7949 30.875V39H70.6199V26.925H73.7949V28.5C74.8449 27.25 76.2533 26.625 78.0199 26.625C79.3199 26.625 80.2949 26.9667 80.9449 27.65C81.6116 28.3333 81.9449 29.275 81.9449 30.475V39ZM89.1475 39.3C88.0308 39.3 87.1808 39.0167 86.5975 38.45C86.0141 37.8833 85.7225 37.0667 85.7225 36V29.7H83.7225V26.925H85.7225V23.625H88.9225V26.925H91.3725V29.7H88.9225V35.15C88.9225 35.5333 89.0225 35.85 89.2225 36.1C89.4225 36.35 89.6891 36.475 90.0225 36.475C90.5225 36.475 90.8891 36.3583 91.1225 36.125L91.7975 38.525C91.2141 39.0417 90.3308 39.3 89.1475 39.3ZM103.991 39.3C102.875 39.3 102.025 39.0167 101.441 38.45C100.858 37.8833 100.566 37.0667 100.566 36V29.7H98.5662V26.925H100.566V23.625H103.766V26.925H106.216V29.7H103.766V35.15C103.766 35.5333 103.866 35.85 104.066 36.1C104.266 36.35 104.533 36.475 104.866 36.475C105.366 36.475 105.733 36.3583 105.966 36.125L106.641 38.525C106.058 39.0417 105.175 39.3 103.991 39.3ZM119.738 39H116.563V31.65C116.563 30.85 116.372 30.2833 115.988 29.95C115.605 29.6167 115.047 29.45 114.313 29.45C113.197 29.45 112.28 29.925 111.563 30.875V39H108.388V22.325H111.563V28.5C111.997 27.9833 112.58 27.5417 113.313 27.175C114.063 26.8083 114.897 26.625 115.813 26.625C117.113 26.625 118.088 26.9583 118.738 27.625C119.405 28.2917 119.738 29.225 119.738 30.425V39ZM133.315 39H130.14V37.75C129.274 38.7833 127.999 39.3 126.315 39.3C125.232 39.3 124.257 38.95 123.39 38.25C122.54 37.5333 122.115 36.55 122.115 35.3C122.115 34 122.532 33.025 123.365 32.375C124.215 31.725 125.199 31.4 126.315 31.4C128.032 31.4 129.307 31.8917 130.14 32.875V31.25C130.14 30.6333 129.899 30.1417 129.415 29.775C128.932 29.4083 128.29 29.225 127.49 29.225C126.174 29.225 124.999 29.7 123.965 30.65L122.765 28.525C124.199 27.2583 125.957 26.625 128.04 26.625C129.59 26.625 130.857 26.9833 131.84 27.7C132.824 28.4167 133.315 29.5833 133.315 31.2V39ZM127.59 37.15C128.774 37.15 129.624 36.8 130.14 36.1V34.6C129.624 33.9 128.774 33.55 127.59 33.55C126.94 33.55 126.399 33.7167 125.965 34.05C125.532 34.3667 125.315 34.8083 125.315 35.375C125.315 35.925 125.532 36.3583 125.965 36.675C126.399 36.9917 126.94 37.15 127.59 37.15ZM140.515 39.3C139.398 39.3 138.548 39.0167 137.965 38.45C137.381 37.8833 137.09 37.0667 137.09 36V29.7H135.09V26.925H137.09V23.625H140.29V26.925H142.74V29.7H140.29V35.15C140.29 35.5333 140.39 35.85 140.59 36.1C140.79 36.35 141.056 36.475 141.39 36.475C141.89 36.475 142.256 36.3583 142.49 36.125L143.165 38.525C142.581 39.0417 141.698 39.3 140.515 39.3ZM155.658 39.3C154.608 39.3 153.6 39.1333 152.633 38.8C151.683 38.4667 150.892 38.0083 150.258 37.425L151.633 35.2C152.1 35.6333 152.733 36.0167 153.533 36.35C154.333 36.6833 155.092 36.85 155.808 36.85C156.475 36.85 156.975 36.7333 157.308 36.5C157.658 36.2667 157.833 35.95 157.833 35.55C157.833 35.25 157.65 35.0083 157.283 34.825C156.933 34.625 156.492 34.4833 155.958 34.4C155.442 34.3167 154.867 34.1917 154.233 34.025C153.617 33.8583 153.042 33.6583 152.508 33.425C151.992 33.1917 151.55 32.825 151.183 32.325C150.833 31.8083 150.658 31.175 150.658 30.425C150.658 29.3583 151.1 28.4583 151.983 27.725C152.867 26.9917 154.075 26.625 155.608 26.625C157.475 26.625 159.1 27.175 160.483 28.275L159.208 30.45C158.825 30.05 158.308 29.7167 157.658 29.45C157.025 29.1833 156.35 29.05 155.633 29.05C155.067 29.05 154.608 29.1667 154.258 29.4C153.908 29.6167 153.733 29.9 153.733 30.25C153.733 30.5167 153.908 30.7417 154.258 30.925C154.608 31.0917 155.05 31.2167 155.583 31.3C156.117 31.3833 156.692 31.5167 157.308 31.7C157.925 31.8667 158.5 32.075 159.033 32.325C159.567 32.5583 160.008 32.9417 160.358 33.475C160.708 34.0083 160.883 34.6583 160.883 35.425C160.883 36.5583 160.417 37.4917 159.483 38.225C158.567 38.9417 157.292 39.3 155.658 39.3ZM167.272 39.3C166.156 39.3 165.306 39.0167 164.722 38.45C164.139 37.8833 163.847 37.0667 163.847 36V29.7H161.847V26.925H163.847V23.625H167.047V26.925H169.497V29.7H167.047V35.15C167.047 35.5333 167.147 35.85 167.347 36.1C167.547 36.35 167.814 36.475 168.147 36.475C168.647 36.475 169.014 36.3583 169.247 36.125L169.922 38.525C169.339 39.0417 168.456 39.3 167.272 39.3ZM181.92 37.475C180.753 38.6917 179.203 39.3 177.27 39.3C175.336 39.3 173.786 38.6917 172.62 37.475C171.47 36.2417 170.895 34.7333 170.895 32.95C170.895 31.1667 171.47 29.6667 172.62 28.45C173.786 27.2333 175.336 26.625 177.27 26.625C179.203 26.625 180.753 27.2333 181.92 28.45C183.086 29.6667 183.67 31.1667 183.67 32.95C183.67 34.7333 183.086 36.2417 181.92 37.475ZM175.02 35.475C175.57 36.1417 176.32 36.475 177.27 36.475C178.22 36.475 178.97 36.1417 179.52 35.475C180.086 34.7917 180.37 33.95 180.37 32.95C180.37 31.9667 180.086 31.1417 179.52 30.475C178.97 29.7917 178.22 29.45 177.27 29.45C176.32 29.45 175.57 29.7917 175.02 30.475C174.47 31.1417 174.195 31.9667 174.195 32.95C174.195 33.95 174.47 34.7917 175.02 35.475ZM189.2 39H186.025V26.925H189.2V28.575C189.65 28.0083 190.225 27.5417 190.925 27.175C191.625 26.8083 192.334 26.625 193.05 26.625V29.725C192.834 29.675 192.542 29.65 192.175 29.65C191.642 29.65 191.075 29.7833 190.475 30.05C189.875 30.3167 189.45 30.6417 189.2 31.025V39ZM194.609 43.725L195.084 40.875C195.384 41.0083 195.717 41.075 196.084 41.075C196.934 41.075 197.492 40.7833 197.759 40.2L198.209 39.175L193.309 26.925H196.709L199.859 35.325L203.009 26.925H206.434L200.759 40.975C200.342 42.0417 199.759 42.7833 199.009 43.2C198.259 43.6333 197.317 43.8667 196.184 43.9C195.601 43.9 195.076 43.8417 194.609 43.725ZM210.309 37.775C210.309 38.6917 210.075 39.55 209.609 40.35C209.142 41.1667 208.517 41.8583 207.734 42.425L206.359 41.3C206.775 41.0833 207.175 40.7417 207.559 40.275C207.942 39.825 208.184 39.3833 208.284 38.95C208.134 39 207.975 39.025 207.809 39.025C207.325 39.025 206.917 38.8583 206.584 38.525C206.267 38.1917 206.109 37.7583 206.109 37.225C206.109 36.675 206.3 36.2083 206.684 35.825C207.067 35.425 207.525 35.225 208.059 35.225C208.675 35.225 209.2 35.4583 209.634 35.925C210.084 36.375 210.309 36.9917 210.309 37.775ZM223.352 39.3C222.235 39.3 221.385 39.0167 220.802 38.45C220.218 37.8833 219.927 37.0667 219.927 36V29.7H217.927V26.925H219.927V23.625H223.127V26.925H225.577V29.7H223.127V35.15C223.127 35.5333 223.227 35.85 223.427 36.1C223.627 36.35 223.893 36.475 224.227 36.475C224.727 36.475 225.093 36.3583 225.327 36.125L226.002 38.525C225.418 39.0417 224.535 39.3 223.352 39.3ZM237.999 37.475C236.832 38.6917 235.282 39.3 233.349 39.3C231.415 39.3 229.865 38.6917 228.699 37.475C227.549 36.2417 226.974 34.7333 226.974 32.95C226.974 31.1667 227.549 29.6667 228.699 28.45C229.865 27.2333 231.415 26.625 233.349 26.625C235.282 26.625 236.832 27.2333 237.999 28.45C239.165 29.6667 239.749 31.1667 239.749 32.95C239.749 34.7333 239.165 36.2417 237.999 37.475ZM231.099 35.475C231.649 36.1417 232.399 36.475 233.349 36.475C234.299 36.475 235.049 36.1417 235.599 35.475C236.165 34.7917 236.449 33.95 236.449 32.95C236.449 31.9667 236.165 31.1417 235.599 30.475C235.049 29.7917 234.299 29.45 233.349 29.45C232.399 29.45 231.649 29.7917 231.099 30.475C230.549 31.1417 230.274 31.9667 230.274 32.95C230.274 33.95 230.549 34.7917 231.099 35.475ZM252.354 37.475C251.188 38.6917 249.638 39.3 247.704 39.3C245.771 39.3 244.221 38.6917 243.054 37.475C241.904 36.2417 241.329 34.7333 241.329 32.95C241.329 31.1667 241.904 29.6667 243.054 28.45C244.221 27.2333 245.771 26.625 247.704 26.625C249.638 26.625 251.188 27.2333 252.354 28.45C253.521 29.6667 254.104 31.1667 254.104 32.95C254.104 34.7333 253.521 36.2417 252.354 37.475ZM245.454 35.475C246.004 36.1417 246.754 36.475 247.704 36.475C248.654 36.475 249.404 36.1417 249.954 35.475C250.521 34.7917 250.804 33.95 250.804 32.95C250.804 31.9667 250.521 31.1417 249.954 30.475C249.404 29.7917 248.654 29.45 247.704 29.45C246.754 29.45 246.004 29.7917 245.454 30.475C244.904 31.1417 244.629 31.9667 244.629 32.95C244.629 33.95 244.904 34.7917 245.454 35.475ZM259.485 33.575H256.685L256.16 22.325H259.985L259.485 33.575ZM259.51 38.65C259.11 39.05 258.635 39.25 258.085 39.25C257.535 39.25 257.06 39.05 256.66 38.65C256.276 38.25 256.085 37.7833 256.085 37.25C256.085 36.7 256.276 36.225 256.66 35.825C257.06 35.425 257.535 35.225 258.085 35.225C258.635 35.225 259.11 35.425 259.51 35.825C259.91 36.225 260.11 36.7 260.11 37.25C260.11 37.7833 259.91 38.25 259.51 38.65Z" fill="#1D1A1E"/>
</svg>
