<svg width="70" height="27" viewBox="0 0 70 27" fill="none" xmlns="http://www.w3.org/2000/svg">
<rect width="70" height="27" rx="4" fill="#FCEA10"/>
<path d="M20.256 17H18.852V8.996H20.256V17ZM23.4815 9.968C23.4815 10.368 23.3775 10.752 23.1695 11.12C22.9695 11.48 22.6975 11.78 22.3535 12.02L21.7895 11.552C21.9895 11.432 22.1735 11.264 22.3415 11.048C22.5095 10.832 22.6135 10.624 22.6535 10.424C22.5815 10.448 22.5135 10.46 22.4495 10.46C22.2415 10.46 22.0695 10.392 21.9335 10.256C21.7975 10.112 21.7295 9.928 21.7295 9.704C21.7295 9.48 21.8095 9.288 21.9695 9.128C22.1295 8.96 22.3215 8.876 22.5455 8.876C22.8015 8.876 23.0215 8.976 23.2055 9.176C23.3895 9.368 23.4815 9.632 23.4815 9.968ZM33.2032 17H31.7992V11.06L29.3392 17H28.7392L26.2912 11.06V17H24.8872V8.996H26.8672L29.0392 14.264L31.2232 8.996H33.2032V17ZM39.3927 17H37.9887V8.996H39.3927V17ZM48.0302 17H46.6742L42.4982 11.288V17H41.0942V8.996H42.5342L46.6262 14.552V8.996H48.0302V17ZM50.8949 14.552H49.8029L49.5749 8.996H51.1109L50.8949 14.552ZM50.9309 16.88C50.7629 17.04 50.5669 17.12 50.3429 17.12C50.1189 17.12 49.9229 17.04 49.7549 16.88C49.5949 16.712 49.5149 16.516 49.5149 16.292C49.5149 16.06 49.5949 15.864 49.7549 15.704C49.9229 15.536 50.1189 15.452 50.3429 15.452C50.5669 15.452 50.7629 15.536 50.9309 15.704C51.0989 15.864 51.1829 16.06 51.1829 16.292C51.1829 16.516 51.0989 16.712 50.9309 16.88Z" fill="#1D1A1E"/>
</svg>
